<svg width="32" height="32" viewBox="0 0 100 100" fill="none" xmlns="http://www.w3.org/2000/svg">
  <g transform="translate(50, 50)">
    <path d="M-3,-8 C-5,-20 -8,-38 -2,-42 C4,-46 10,-32 8,-18 C6,-12 3,-8 0,-8 Z" fill="#d26cff" opacity="0.9"/>
    <path d="M-3,-8 C-5,-20 -8,-38 -2,-42 C4,-46 10,-32 8,-18 C6,-12 3,-8 0,-8 Z" fill="#d26cff" transform="rotate(120)"/>
    <path d="M-3,-8 C-5,-20 -8,-38 -2,-42 C4,-46 10,-32 8,-18 C6,-12 3,-8 0,-8 Z" fill="#d26cff" opacity="0.8" transform="rotate(240)"/>
    <circle cx="0" cy="0" r="5" fill="#d26cff"/>
    <circle cx="0" cy="0" r="2.5" fill="#0a0a0a"/>
  </g>
</svg>
